{
  "accessors": [
    {
      "bufferView": 2,
      "componentType": 5126,
      "count": 2553,
      "max": [
        1.0715274810791016,
        2.4110114574432373,
        1.0737110376358032
      ],
      "min": [
        -1.0729961395263672,
        -2.4196395874023438,
        -1.0708125829696655
      ],
      "type": "VEC3"
    },
    {
      "bufferView": 2,
      "byteOffset": 30636,
      "componentType": 5126,
      "count": 2553,
      "max": [
        1.0,
        1.0,
        1.0
      ],
      "min": [
        -1.0,
        -1.0,
        -1.0
      ],
      "type": "VEC3"
    },
    {
      "bufferView": 1,
      "componentType": 5126,
      "count": 2553,
      "max": [
        0.9973450303077698,
        0.99263596534729
      ],
      "min": [
        0.0009765625,
        0.0009765625
      ],
      "type": "VEC2"
    },
    {
      "bufferView": 1,
      "byteOffset": 20424,
      "componentType": 5126,
      "count": 2553,
      "max": [
        0.9973450303077698,
        0.99263596534729
      ],
      "min": [
        0.0009765625,
        0.0009765625
      ],
      "type": "VEC2"
    },
    {
      "bufferView": 1,
      "byteOffset": 40848,
      "componentType": 5126,
      "count": 2553,
      "max": [
        0.9973450303077698,
        0.99263596534729
      ],
      "min": [
        0.0009765625,
        0.0009765625
      ],
      "type": "VEC2"
    },
    {
      "bufferView": 1,
      "byteOffset": 61272,
      "componentType": 5126,
      "count": 2553,
      "max": [
        0.9973450303077698,
        0.99263596534729
      ],
      "min": [
        0.0009765625,
        0.0009765625
      ],
      "type": "VEC2"
    },
    {
      "bufferView": 0,
      "componentType": 5125,
      "count": 4611,
      "type": "SCALAR"
    },
    {
      "bufferView": 2,
      "byteOffset": 61272,
      "componentType": 5126,
      "count": 328,
      "max": [
        1.1400729417800903,
        0.3443679213523865,
        1.1400729417800903
      ],
      "min": [
        -1.1400729417800903,
        -0.27689436078071594,
        -1.1400729417800903
      ],
      "type": "VEC3"
    },
    {
      "bufferView": 2,
      "byteOffset": 65208,
      "componentType": 5126,
      "count": 328,
      "max": [
        1.0,
        1.0,
        1.0
      ],
      "min": [
        -1.0,
        -1.0,
        -1.0
      ],
      "type": "VEC3"
    },
    {
      "bufferView": 1,
      "byteOffset": 81696,
      "componentType": 5126,
      "count": 328,
      "max": [
        0.9681785106658936,
        0.5123566389083862
      ],
      "min": [
        0.001787835848517716,
        0.0011585293104872108
      ],
      "type": "VEC2"
    },
    {
      "bufferView": 1,
      "byteOffset": 84320,
      "componentType": 5126,
      "count": 328,
      "max": [
        0.9681785106658936,
        0.5123566389083862
      ],
      "min": [
        0.001787835848517716,
        0.0011585293104872108
      ],
      "type": "VEC2"
    },
    {
      "bufferView": 1,
      "byteOffset": 86944,
      "componentType": 5126,
      "count": 328,
      "max": [
        0.9681785106658936,
        0.5123566389083862
      ],
      "min": [
        0.001787835848517716,
        0.0011585293104872108
      ],
      "type": "VEC2"
    },
    {
      "bufferView": 1,
      "byteOffset": 89568,
      "componentType": 5126,
      "count": 328,
      "max": [
        0.9681785106658936,
        0.5123566389083862
      ],
      "min": [
        0.001787835848517716,
        0.0011585293104872108
      ],
      "type": "VEC2"
    },
    {
      "bufferView": 0,
      "byteOffset": 18444,
      "componentType": 5125,
      "count": 468,
      "type": "SCALAR"
    },
    {
      "bufferView": 2,
      "byteOffset": 69144,
      "componentType": 5126,
      "count": 256,
      "max": [
        1.0209985971450806,
        0.14084762334823608,
        1.0209985971450806
      ],
      "min": [
        -1.0209985971450806,
        -0.11578208208084106,
        -1.0209985971450806
      ],
      "type": "VEC3"
    },
    {
      "bufferView": 2,
      "byteOffset": 72216,
      "componentType": 5126,
      "count": 256,
      "max": [
        1.0,
        1.0,
        1.0
      ],
      "min": [
        -1.0,
        -1.0,
        -1.0
      ],
      "type": "VEC3"
    },
    {
      "bufferView": 1,
      "byteOffset": 92192,
      "componentType": 5126,
      "count": 256,
      "max": [
        0.8732569217681885,
        0.9963386654853821
      ],
      "min": [
        0.09385105967521667,
        0.10234841704368591
      ],
      "type": "VEC2"
    },
    {
      "bufferView": 1,
      "byteOffset": 94240,
      "componentType": 5126,
      "count": 256,
      "max": [
        0.8732569217681885,
        0.9963386654853821
      ],
      "min": [
        0.09385105967521667,
        0.10234841704368591
      ],
      "type": "VEC2"
    },
    {
      "bufferView": 1,
      "byteOffset": 96288,
      "componentType": 5126,
      "count": 256,
      "max": [
        0.8732569217681885,
        0.9963386654853821
      ],
      "min": [
        0.09385105967521667,
        0.10234841704368591
      ],
      "type": "VEC2"
    },
    {
      "bufferView": 1,
      "byteOffset": 98336,
      "componentType": 5126,
      "count": 256,
      "max": [
        0.8732569217681885,
        0.9963386654853821
      ],
      "min": [
        0.09385105967521667,
        0.10234841704368591
      ],
      "type": "VEC2"
    },
    {
      "bufferView": 0,
      "byteOffset": 20316,
      "componentType": 5125,
      "count": 372,
      "type": "SCALAR"
    }
  ],
  "asset": {
    "extras": {
      "author": "Samuel Francis Johnson (Oneironauticus) (https://sketchfab.com/oneironauticus)",
      "license": "CC-BY-4.0 (http://creativecommons.org/licenses/by/4.0/)",
      "source": "https://sketchfab.com/3d-models/dungeon-cage-34dcb15847ef439eb9f0c991ae1078f8",
      "title": "Dungeon Cage"
    },
    "generator": "Sketchfab-15.30.0",
    "version": "2.0"
  },
  "bufferViews": [
    {
      "buffer": 0,
      "byteLength": 21804,
      "name": "floatBufferViews",
      "target": 34963
    },
    {
      "buffer": 0,
      "byteLength": 100384,
      "byteOffset": 21804,
      "byteStride": 8,
      "name": "floatBufferViews",
      "target": 34962
    },
    {
      "buffer": 0,
      "byteLength": 75288,
      "byteOffset": 122188,
      "byteStride": 12,
      "name": "floatBufferViews",
      "target": 34962
    }
  ],
  "buffers": [
    {
      "byteLength": 197476,
      "uri": "scene.bin"
    }
  ],
  "images": [
    {
      "uri": "textures/Atlas_BAKED.001_baseColor.png"
    },
    {
      "uri": "textures/Atlas_BAKED.001_metallicRoughness.png"
    }
  ],
  "materials": [
    {
      "doubleSided": true,
      "name": "Atlas_BAKED.001",
      "pbrMetallicRoughness": {
        "baseColorTexture": {
          "index": 0
        },
        "metallicRoughnessTexture": {
          "index": 1,
          "texCoord": 1
        }
      }
    }
  ],
  "meshes": [
    {
      "name": "Object_0",
      "primitives": [
        {
          "attributes": {
            "NORMAL": 1,
            "POSITION": 0,
            "TEXCOORD_0": 2,
            "TEXCOORD_1": 3,
            "TEXCOORD_2": 4,
            "TEXCOORD_3": 5
          },
          "indices": 6,
          "material": 0,
          "mode": 4
        }
      ]
    },
    {
      "name": "Object_1",
      "primitives": [
        {
          "attributes": {
            "NORMAL": 8,
            "POSITION": 7,
            "TEXCOORD_0": 9,
            "TEXCOORD_1": 10,
            "TEXCOORD_2": 11,
            "TEXCOORD_3": 12
          },
          "indices": 13,
          "material": 0,
          "mode": 4
        }
      ]
    },
    {
      "name": "Object_2",
      "primitives": [
        {
          "attributes": {
            "NORMAL": 15,
            "POSITION": 14,
            "TEXCOORD_0": 16,
            "TEXCOORD_1": 17,
            "TEXCOORD_2": 18,
            "TEXCOORD_3": 19
          },
          "indices": 20,
          "material": 0,
          "mode": 4
        }
      ]
    }
  ],
  "nodes": [
    {
      "children": [
        1
      ],
      "matrix": [
        1.0,
        0.0,
        0.0,
        0.0,
        0.0,
        2.220446049250313e-16,
        -1.0,
        0.0,
        0.0,
        1.0,
        2.220446049250313e-16,
        0.0,
        0.0,
        0.0,
        0.0,
        1.0
      ],
      "name": "Sketchfab_model"
    },
    {
      "children": [
        2
      ],
      "name": "root"
    },
    {
      "children": [
        3,
        5,
        7
      ],
      "matrix": [
        1.0,
        0.0,
        0.0,
        0.0,
        0.0,
        2.220446049250313e-16,
        1.0,
        0.0,
        0.0,
        -1.0,
        2.220446049250313e-16,
        0.0,
        0.0,
        0.0,
        0.0,
        1.0
      ],
      "name": "GLTF_SceneRootNode"
    },
    {
      "children": [
        4
      ],
      "matrix": [
        1.0,
        0.0,
        0.0,
        0.0,
        0.0,
        1.0,
        0.0,
        0.0,
        0.0,
        0.0,
        1.0,
        0.0,
        0.0,
        3.0500001907348633,
        0.0,
        1.0
      ],
      "name": "Cube.001_0"
    },
    {
      "mesh": 0,
      "name": "Object_4"
    },
    {
      "children": [
        6
      ],
      "matrix": [
        1.0,
        0.0,
        0.0,
        0.0,
        0.0,
        1.0,
        0.0,
        0.0,
        0.0,
        0.0,
        1.0,
        0.0,
        0.0,
        0.28720927238464355,
        0.0,
        1.0
      ],
      "name": "Cube.003_1"
    },
    {
      "mesh": 1,
      "name": "Object_6"
    },
    {
      "children": [
        8
      ],
      "matrix": [
        1.0,
        0.0,
        0.0,
        0.0,
        0.0,
        1.0,
        0.0,
        0.0,
        0.0,
        0.0,
        1.0,
        0.0,
        0.0,
        5.5727338790893555,
        0.0,
        1.0
      ],
      "name": "Cube.004_2"
    },
    {
      "mesh": 2,
      "name": "Object_8"
    }
  ],
  "samplers": [
    {
      "magFilter": 9729,
      "minFilter": 9987,
      "wrapS": 10497,
      "wrapT": 10497
    }
  ],
  "scene": 0,
  "scenes": [
    {
      "name": "Sketchfab_Scene",
      "nodes": [
        0
      ]
    }
  ],
  "textures": [
    {
      "sampler": 0,
      "source": 0
    },
    {
      "sampler": 0,
      "source": 1
    }
  ]
}
