{
  "accessors": [
    {
      "bufferView": 2,
      "componentType": 5126,
      "count": 65532,
      "max": [
        6.63468599319458,
        7.330611228942871,
        9.200000204145908e-05
      ],
      "min": [
        -7.244748115539551,
        -7.680501937866211,
        -9.499500274658203
      ],
      "type": "VEC3"
    },
    {
      "bufferView": 2,
      "byteOffset": 786384,
      "componentType": 5126,
      "count": 65532,
      "max": [
        0.9999823570251465,
        0.9999948740005493,
        0.9965924620628357
      ],
      "min": [
        -0.999981164932251,
        -0.9999936819076538,
        -0.999984860420227
      ],
      "type": "VEC3"
    },
    {
      "bufferView": 3,
      "componentType": 5126,
      "count": 65532,
      "max": [
        0.9999970197677612,
        0.9999628663063049,
        0.9999990463256836,
        1.0
      ],
      "min": [
        -0.9999671578407288,
        -0.9999880790710449,
        -0.9999655485153198,
        -1.0
      ],
      "type": "VEC4"
    },
    {
      "bufferView": 1,
      "componentType": 5126,
      "count": 65532,
      "max": [
        0.9944800138473511,
        0.9952470064163208
      ],
      "min": [
        0.0013670000480487943,
        0.0013670000480487943
      ],
      "type": "VEC2"
    },
    {
      "bufferView": 0,
      "componentType": 5125,
      "count": 316959,
      "type": "SCALAR"
    },
    {
      "bufferView": 2,
      "byteOffset": 1572768,
      "componentType": 5126,
      "count": 65532,
      "max": [
        6.21827507019043,
        6.271100044250488,
        -0.1568550020456314
      ],
      "min": [
        -7.074230194091797,
        -7.355905055999756,
        -9.547135353088379
      ],
      "type": "VEC3"
    },
    {
      "bufferView": 2,
      "byteOffset": 2359152,
      "componentType": 5126,
      "count": 65532,
      "max": [
        0.9999921321868896,
        0.9999929666519165,
        0.972653865814209
      ],
      "min": [
        -0.9999983310699463,
        -0.999995231628418,
        -0.9999667406082153
      ],
      "type": "VEC3"
    },
    {
      "bufferView": 3,
      "byteOffset": 1048512,
      "componentType": 5126,
      "count": 65532,
      "max": [
        0.9999812245368958,
        0.9999999403953552,
        0.9999990463256836,
        1.0
      ],
      "min": [
        -0.9999948740005493,
        -0.9999954700469971,
        -0.9999970197677612,
        -1.0
      ],
      "type": "VEC4"
    },
    {
      "bufferView": 1,
      "byteOffset": 524256,
      "componentType": 5126,
      "count": 65532,
      "max": [
        0.9960370063781738,
        0.9975789785385132
      ],
      "min": [
        0.0013670000480487943,
        0.0013670000480487943
      ],
      "type": "VEC2"
    },
    {
      "bufferView": 0,
      "byteOffset": 1267836,
      "componentType": 5125,
      "count": 318360,
      "type": "SCALAR"
    },
    {
      "bufferView": 2,
      "byteOffset": 3145536,
      "componentType": 5126,
      "count": 65532,
      "max": [
        6.613208770751953,
        7.164391994476318,
        9.200000204145908e-05
      ],
      "min": [
        -7.247132778167725,
        -7.657225131988525,
        -9.813591003417969
      ],
      "type": "VEC3"
    },
    {
      "bufferView": 2,
      "byteOffset": 3931920,
      "componentType": 5126,
      "count": 65532,
      "max": [
        0.999984622001648,
        0.9999878406524658,
        0.9965924620628357
      ],
      "min": [
        -0.9999983310699463,
        -0.999985933303833,
        -0.999984860420227
      ],
      "type": "VEC3"
    },
    {
      "bufferView": 3,
      "byteOffset": 2097024,
      "componentType": 5126,
      "count": 65532,
      "max": [
        0.9999812245368958,
        0.9999990463256836,
        0.9999906420707703,
        1.0
      ],
      "min": [
        -0.9999948740005493,
        -0.9999880790710449,
        -0.99996018409729,
        -1.0
      ],
      "type": "VEC4"
    },
    {
      "bufferView": 1,
      "byteOffset": 1048512,
      "componentType": 5126,
      "count": 65532,
      "max": [
        0.9964659810066223,
        0.9986330270767212
      ],
      "min": [
        0.002630000002682209,
        0.0013670000480487943
      ],
      "type": "VEC2"
    },
    {
      "bufferView": 0,
      "byteOffset": 2541276,
      "componentType": 5125,
      "count": 268269,
      "type": "SCALAR"
    },
    {
      "bufferView": 2,
      "byteOffset": 4718304,
      "componentType": 5126,
      "count": 11183,
      "max": [
        6.398066997528076,
        7.281095027923584,
        9.200000204145908e-05
      ],
      "min": [
        -7.198225021362305,
        -7.61153507232666,
        -9.806215286254883
      ],
      "type": "VEC3"
    },
    {
      "bufferView": 2,
      "byteOffset": 4852500,
      "componentType": 5126,
      "count": 11183,
      "max": [
        0.999984622001648,
        0.9998264908790588,
        0.9517586827278137
      ],
      "min": [
        -0.9998719692230225,
        -0.9999873638153076,
        -0.9999667406082153
      ],
      "type": "VEC3"
    },
    {
      "bufferView": 3,
      "byteOffset": 3145536,
      "componentType": 5126,
      "count": 11183,
      "max": [
        0.9999564290046692,
        0.9997714161872864,
        0.9998983144760132,
        1.0
      ],
      "min": [
        -0.9999671578407288,
        -0.9999282360076904,
        -0.9999970197677612,
        -1.0
      ],
      "type": "VEC4"
    },
    {
      "bufferView": 1,
      "byteOffset": 1572768,
      "componentType": 5126,
      "count": 11183,
      "max": [
        0.9964659810066223,
        0.9927260279655457
      ],
      "min": [
        0.0013670000480487943,
        0.0013670000480487943
      ],
      "type": "VEC2"
    },
    {
      "bufferView": 0,
      "byteOffset": 3614352,
      "componentType": 5125,
      "count": 17535,
      "type": "SCALAR"
    }
  ],
  "asset": {
    "extras": {
      "author": "JonhGillessen (https://sketchfab.com/JonhGillessen)",
      "license": "CC-BY-4.0 (http://creativecommons.org/licenses/by/4.0/)",
      "source": "https://sketchfab.com/3d-models/stalactite-b290c1fb108342378f55a75d270e14df",
      "title": "Stalactite"
    },
    "generator": "Sketchfab-15.24.0",
    "version": "2.0"
  },
  "bufferViews": [
    {
      "buffer": 0,
      "byteLength": 3684492,
      "name": "floatBufferViews",
      "target": 34963
    },
    {
      "buffer": 0,
      "byteLength": 1662232,
      "byteOffset": 3684492,
      "byteStride": 8,
      "name": "floatBufferViews",
      "target": 34962
    },
    {
      "buffer": 0,
      "byteLength": 4986696,
      "byteOffset": 5346724,
      "byteStride": 12,
      "name": "floatBufferViews",
      "target": 34962
    },
    {
      "buffer": 0,
      "byteLength": 3324464,
      "byteOffset": 10333420,
      "byteStride": 16,
      "name": "floatBufferViews",
      "target": 34962
    }
  ],
  "buffers": [
    {
      "byteLength": 13657884,
      "uri": "scene.bin"
    }
  ],
  "images": [
    {
      "uri": "textures/material_0_baseColor.png"
    },
    {
      "uri": "textures/material_0_metallicRoughness.png"
    },
    {
      "uri": "textures/material_0_normal.png"
    }
  ],
  "materials": [
    {
      "doubleSided": true,
      "name": "material_0",
      "normalTexture": {
        "index": 2
      },
      "occlusionTexture": {
        "index": 1
      },
      "pbrMetallicRoughness": {
        "baseColorTexture": {
          "index": 0
        },
        "metallicFactor": 0.0,
        "metallicRoughnessTexture": {
          "index": 1
        }
      }
    }
  ],
  "meshes": [
    {
      "name": "Object_0",
      "primitives": [
        {
          "attributes": {
            "NORMAL": 1,
            "POSITION": 0,
            "TANGENT": 2,
            "TEXCOORD_0": 3
          },
          "indices": 4,
          "material": 0,
          "mode": 4
        }
      ]
    },
    {
      "name": "Object_1",
      "primitives": [
        {
          "attributes": {
            "NORMAL": 6,
            "POSITION": 5,
            "TANGENT": 7,
            "TEXCOORD_0": 8
          },
          "indices": 9,
          "material": 0,
          "mode": 4
        }
      ]
    },
    {
      "name": "Object_2",
      "primitives": [
        {
          "attributes": {
            "NORMAL": 11,
            "POSITION": 10,
            "TANGENT": 12,
            "TEXCOORD_0": 13
          },
          "indices": 14,
          "material": 0,
          "mode": 4
        }
      ]
    },
    {
      "name": "Object_3",
      "primitives": [
        {
          "attributes": {
            "NORMAL": 16,
            "POSITION": 15,
            "TANGENT": 17,
            "TEXCOORD_0": 18
          },
          "indices": 19,
          "material": 0,
          "mode": 4
        }
      ]
    }
  ],
  "nodes": [
    {
      "children": [
        1
      ],
      "matrix": [
        1.0,
        0.0,
        0.0,
        0.0,
        0.0,
        2.220446049250313e-16,
        -1.0,
        0.0,
        0.0,
        1.0,
        2.220446049250313e-16,
        0.0,
        0.0,
        0.0,
        0.0,
        1.0
      ],
      "name": "Sketchfab_model"
    },
    {
      "children": [
        2,
        3,
        4,
        5
      ],
      "name": "stallaFinal.obj.cleaner.materialmerger.gles"
    },
    {
      "mesh": 0,
      "name": "Object_2"
    },
    {
      "mesh": 1,
      "name": "Object_3"
    },
    {
      "mesh": 2,
      "name": "Object_4"
    },
    {
      "mesh": 3,
      "name": "Object_5"
    }
  ],
  "samplers": [
    {
      "magFilter": 9729,
      "minFilter": 9987,
      "wrapS": 10497,
      "wrapT": 10497
    }
  ],
  "scene": 0,
  "scenes": [
    {
      "name": "Sketchfab_Scene",
      "nodes": [
        0
      ]
    }
  ],
  "textures": [
    {
      "sampler": 0,
      "source": 0
    },
    {
      "sampler": 0,
      "source": 1
    },
    {
      "sampler": 0,
      "source": 2
    }
  ]
}
